<svg fill="none" height="512" viewBox="0 0 24 24" width="512" xmlns="http://www.w3.org/2000/svg"><path d="m8 6v-2c0-.55228.44772-1 1-1h6c.5523 0 1 .44772 1 1v2" stroke="rgb(0,0,0)" stroke-width="1.5"/><path clip-rule="evenodd" d="m.25 8c0-1.51878 1.23122-2.75 2.75-2.75h18c1.5188 0 2.75 1.23122 2.75 2.75v12c0 1.5188-1.2312 2.75-2.75 2.75h-18c-1.51878 0-2.75-1.2312-2.75-2.75zm4.5 7c0-1.2426 1.00736-2.25 2.25-2.25s2.25 1.0074 2.25 2.25-1.00736 2.25-2.25 2.25-2.25-1.0074-2.25-2.25zm2.25-3.75c-2.07107 0-3.75 1.6789-3.75 3.75s1.67893 3.75 3.75 3.75 3.75-1.6789 3.75-3.75-1.67893-3.75-3.75-3.75zm10 1.5c-1.2426 0-2.25 1.0074-2.25 2.25s1.0074 2.25 2.25 2.25 2.25-1.0074 2.25-2.25-1.0074-2.25-2.25-2.25zm-3.75 2.25c0-2.0711 1.6789-3.75 3.75-3.75s3.75 1.6789 3.75 3.75-1.6789 3.75-3.75 3.75-3.75-1.6789-3.75-3.75zm-5.75-6.75c-.41421 0-.75.33579-.75.75s.33579.75.75.75h8.5c.4142 0 .75-.33579.75-.75s-.3358-.75-.75-.75z" fill="rgb(0,0,0)" fill-rule="evenodd"/></svg>